inDegrees=yes
name=ik_S52_A05_T02
DataType=double
version=3
OpenSimVersion=4.3-2021-08-27-4bc7ad9
endheader
time	pelvis_tilt	pelvis_list	pelvis_rotation	pelvis_tx	pelvis_ty	pelvis_tz	hip_flexion_r	hip_adduction_r	hip_rotation_r	knee_angle_r	knee_angle_r_beta	ankle_angle_r	subtalar_angle_r	mtp_angle_r	hip_flexion_l	hip_adduction_l	hip_rotation_l	knee_angle_l	knee_angle_l_beta	ankle_angle_l	subtalar_angle_l	mtp_angle_l	lumbar_extension	lumbar_bending	lumbar_rotation	arm_flex_r	arm_add_r	arm_rot_r	elbow_flex_r	pro_sup_r	wrist_flex_r	wrist_dev_r	arm_flex_l	arm_add_l	arm_rot_l	elbow_flex_l	pro_sup_l	wrist_flex_l	wrist_dev_l
17.45999999999972	-5.161585586635535	-2.420544893773271	25.50909379738196	0	0.9399999999999999	0	44.84037050837355	-10.10147728459217	-10.1957759755081	54.26641033794631	0.9471275336354519	7.459430048704922e-36	0	0	44.84037050837355	-10.10147728459217	-10.1957759755081	54.26641033794631	0.9471275336354519	7.459430048704922e-36	0	0	-4.29913512695251	-3.673148195624143	0.8398832466370636	76.29063267901789	20.48416495063056	7.31983625129184	16.10131198982744	109.6487576182462	0	0	39.45014645792759	-7.074202429408487	0.2057059169714597	37.1302580481009	121.7170037816533	0	0
17.47999999999972	-5.182169089888355	-2.415578418897984	25.5248454287583	0	0.9399999999999999	0	44.84023612422769	-10.10192688766884	-10.19625664450064	54.26604260385662	0.9471211154648149	0	0	0	44.84023612422769	-10.10192688766884	-10.19625664450064	54.26604260385662	0.9471211154648149	0	0	0	-4.315310826654693	-3.660743550049185	0.8308112067242506	76.42780939847967	20.47779165872339	7.277205613027967	15.8667330630823	109.5629507484321	0	0	39.50387911842903	-7.03367658818318	0.1520840290097254	37.09032250366422	121.7646658957084	0	0
17.49999999999972	-5.184242631426181	-2.433486438464266	25.58401846028349	0	0.9399999999999999	0	44.84024949071895	-10.10189770581679	-10.19622035281751	54.26608453418726	0.9471218472871411	0	0	0	44.84024949071895	-10.10189770581679	-10.19622035281751	54.26608453418726	0.9471218472871411	0	0	0	-4.325358091505767	-3.674714180971428	0.8196681233995562	76.50674685097101	20.57984610565087	7.508795117657409	15.84241660900711	109.6268823212842	0	0	39.4884645994303	-7.033743959308974	0.2141635808069157	37.11459146344409	121.778622626625	0	0
17.51999999999972	-5.212375420444086	-2.414008821300746	25.57988653657169	0	0.9399999999999999	0	44.84047616514502	-10.10179433397633	-10.19588185962112	54.26688790598524	0.9471358687701336	0	0	0	44.84047616514502	-10.10179433397633	-10.19588185962112	54.26688790598524	0.9471358687701336	0	0	0	-4.344838204560122	-3.638885957839152	0.8013947547877175	76.52557498101524	20.59593870463817	7.588276270915754	15.75724002757187	109.8754480738281	0	0	39.51342678279848	-6.989332494780174	0.148659612647992	37.14963501482971	121.7760934865473	0	0
17.53999999999971	-5.207639176766822	-2.428844039201433	25.63868261343107	0	0.9399999999999999	0	44.84049464922269	-10.1017538485655	-10.19583159242508	54.26694574562426	0.9471368782622726	0	0	0	44.84049464922269	-10.1017538485655	-10.19583159242508	54.26694574562426	0.9471368782622726	0	0	0	-4.347892039710278	-3.65189780477874	0.7789653473353055	76.46653837694996	20.75829853091005	7.853655831927117	15.73143749045599	109.9101620974325	0	0	39.52398838356139	-6.991915498483714	0.2732749937136973	37.15581818894056	121.7538557587391	0	0
17.55999999999971	-5.207173048805493	-2.415685901179537	25.61648128710989	0	0.9399999999999999	0	44.8405928748806	-10.10169442772225	-10.19567713159904	54.26729086463467	0.9471429017253153	0	0	0	44.8405928748806	-10.10169442772225	-10.19567713159904	54.26729086463467	0.9471429017253153	0	0	0	-4.342379040098628	-3.638686701892582	0.7816056175524096	76.4391616890159	20.763729864816	7.913378438209014	15.67003765198114	109.9416751580354	0	0	39.49334134479271	-6.967148810281077	0.3297830066356024	37.15171175171753	121.7274792720871	0	0
17.57999999999971	-5.20230564392046	-2.397390974173425	25.72761791215751	0	0.9399999999999999	0	44.84066856061132	-10.1015258240914	-10.19546900228746	54.26752388203615	0.9471469686461856	0	0	0	44.84066856061132	-10.1015258240914	-10.19546900228746	54.26752388203615	0.9471469686461856	0	0	0	-4.333470216738307	-3.615277164028273	0.6984568630524091	76.26714489185437	21.05634533578409	8.833886469554567	15.56639961937837	109.1648709708199	0	0	39.48637551652277	-6.961455898780208	0.4057645907794516	37.11055663741679	121.6552646646458	0	0
17.59999999999971	-5.202841040220092	-2.405874960320068	25.75784265753118	0	0.9399999999999999	0	44.8407021520138	-10.1014513907572	-10.19537694188962	54.26762775419104	0.9471487815572897	0	0	0	44.8407021520138	-10.1014513907572	-10.19537694188962	54.26762775419104	0.9471487815572897	0	0	0	-4.339491678891494	-3.617989464094768	0.6547384259115179	76.18568279954359	21.2227069343094	9.199335635098468	15.49130442341791	108.9212467104012	0	0	39.49280830039761	-6.987318913187146	0.3655200889599253	37.11501351795422	121.69107224382	0	0
17.61999999999971	-5.202012244555817	-2.393141776097927	25.7647740277679	0	0.9399999999999999	0	44.84073438688593	-10.10138006457044	-10.19528867411851	54.26772751980902	0.9471505227958037	0	0	0	44.84073438688593	-10.10138006457044	-10.19528867411851	54.26772751980902	0.9471505227958037	0	0	0	-4.334529791957298	-3.603567441642196	0.6254300784630372	76.157866811761	21.30576234395887	9.396450070763656	15.42658633514794	108.9401657972563	0	0	39.44750057568088	-6.995915462288297	0.2922768717933809	37.13218333495576	121.7441181028518	0	0
17.63999999999971	-5.199619507545316	-2.359555673990407	25.72513365588377	0	0.9399999999999999	0	44.84040944789854	-10.10179917568223	-10.19596961307755	54.2666557120918	0.94713181622219	0	0	0	44.84040944789854	-10.10179917568223	-10.19596961307755	54.2666557120918	0.94713181622219	0	0	0	-4.315908336628095	-3.579477034092738	0.6211135372518363	76.1743054937274	21.36716364559895	9.402116842711367	15.28952054225917	109.2036634197749	0	0	39.39269961046685	-6.986022806911859	0.2126096908415497	37.13846585485022	121.8169048622059	0	0
17.65999999999971	-5.189585663330771	-2.344606457783312	25.70435198605614	0	0.9399999999999999	0	44.840464462946	-10.10167706785043	-10.1958186291019	54.26682560761494	0.9471347814584531	0	0	0	44.840464462946	-10.10167706785043	-10.1958186291019	54.26682560761494	0.9471347814584531	0	0	0	-4.300174601909708	-3.570990547591504	0.6362646605331013	76.19677338973821	21.37440692376122	9.184291530570677	15.1812022942258	109.4880662638816	0	0	39.36281206377021	-6.975522476341149	0.2103887521558639	37.12801771464023	121.8601265492094	0	0
17.67999999999971	-5.177696757877654	-2.32731805174393	25.69092981955591	0	0.9399999999999999	0	44.84051118553252	-10.10157332772169	-10.19569035748184	54.26696976420971	0.9471372974656703	0	0	0	44.84051118553252	-10.10157332772169	-10.19569035748184	54.26696976420971	0.9471372974656703	0	0	0	-4.280673988661057	-3.563983376313341	0.6794345490101057	76.20884311174174	21.30825024015261	8.88455511600295	15.0701082808496	109.9205270921029	0	0	39.35013858970849	-6.941304191847753	0.3238695056168112	37.09147887602395	121.8097135910054	0	0
17.69999999999971	-5.183969867431702	-2.324717536365843	25.65703730130256	0	0.9399999999999999	0	44.84058492682051	-10.10140887730436	-10.19548729221458	54.26719618960367	0.947141249334305	0	0	0	44.84058492682051	-10.10140887730436	-10.19548729221458	54.26719618960367	0.947141249334305	0	0	0	-4.284669233687365	-3.560288053086337	0.7074156918848995	76.27936123720953	21.19962937682873	8.548310859847467	15.02938662078448	110.2493803446653	0	0	39.37949009008351	-6.930301012347621	0.4384829821020724	37.0644535459228	121.7223042575222	0	0
17.71999999999971	-5.187515421449683	-2.311810260784761	25.63155273856882	0	0.9399999999999999	0	44.84062358608776	-10.10132317553239	-10.19538123822587	54.26731547965458	0.9471433313384584	0	0	0	44.84062358608776	-10.10132317553239	-10.19538123822587	54.26731547965458	0.9471433313384584	0	0	0	-4.281834936195239	-3.548265310632946	0.7267815809700038	76.29865107557814	21.07434389375911	8.494471919495565	14.98123755646356	110.537812632866	0	0	39.3891879884096	-6.933834076088266	0.4613627032287937	37.05782679292143	121.7030832849937	0	0
17.73999999999971	-5.167535360202634	-2.291576729913996	25.63662060189457	0	0.9399999999999999	0	44.84067895407166	-10.10120109492595	-10.19522987505994	54.26748711532414	0.9471463269460061	0	0	0	44.84067895407166	-10.10120109492595	-10.19522987505994	54.26748711532414	0.9471463269460061	0	0	0	-4.255642411753826	-3.537006069288926	0.7171826509528674	76.22567244372436	21.01780604871696	8.607676238648306	14.98666327336323	110.84008090263	0	0	39.32826093034529	-6.941823992755848	0.3901686940334011	37.06321231190539	121.7579802199229	0	0
17.75999999999971	-5.156601994780195	-2.274634280836839	25.60624097691661	0	0.9399999999999999	0	44.84072936766117	-10.1010898833476	-10.19509198832836	54.26764319315632	0.9471490510180669	0	0	0	44.84072936766117	-10.1010898833476	-10.19509198832836	54.26764319315632	0.9471490510180669	0	0	0	-4.235964243855877	-3.532645921070934	0.7934196138740197	76.13640384197659	20.66802527427649	8.406745091648911	15.19563570917947	111.2404964307654	0	0	39.31149931499132	-6.915824237031844	0.3393184722911817	37.0423382258929	121.8364434217499	0	0
17.77999999999971	-5.145459492387444	-2.260194879909287	25.58307121577876	0	0.9399999999999999	0	44.84076823616054	-10.10100401721902	-10.19498556653807	54.26776330321084	0.947151147333983	0	0	0	44.84076823616054	-10.10100401721902	-10.19498556653807	54.26776330321084	0.947151147333983	0	0	0	-4.218658323660262	-3.526958512464929	0.8271253071252446	76.14376627733768	20.47121713561536	8.235774397655856	15.30106626459939	111.3943661059712	0	0	39.30517456677181	-6.882490822844249	0.3070912824668767	37.01312444497098	121.8555234495234	0	0
17.79999999999971	-5.138417821152087	-2.244228512522945	25.55292775944662	0	0.9399999999999999	0	44.84081461035193	-10.100901488437	-10.19485851346332	54.26790642298511	0.9471536452452688	0	0	0	44.84081461035193	-10.100901488437	-10.19485851346332	54.26790642298511	0.9471536452452688	0	0	0	-4.205232122119702	-3.516051212287138	0.8398992770922239	76.11878630777383	20.34807603289924	8.156562422266765	15.37323416308363	111.566213424093	0	0	39.28904251651918	-6.882282012812093	0.2538710230154412	36.98977355161594	121.865757920109	0	0
17.81999999999971	-5.132328699097924	-2.226167571453401	25.50992638696461	0	0.9399999999999999	0	44.84082763995693	-10.10087343979307	-10.1948234365384	54.267947623143	0.9471543643236763	-3.838116702802883e-36	0	0	44.84082763995693	-10.10087343979307	-10.1948234365384	54.267947623143	0.9471543643236763	-3.838116702802883e-36	0	0	-4.191824099224571	-3.502763679506599	0.8463009336650442	76.07005285324078	20.23849816562537	8.071945349439476	15.3891019570029	111.5364266648296	0	5.38806921148701e-36	39.25973779432774	-6.919092504587637	0.1584729909837103	36.99061509333379	121.8680236188642	0	5.38806921148701e-36
17.83999999999971	-5.112155250173456	-2.205495420615633	25.47129204901158	0	0.9399999999999999	0	44.84088493214681	-10.10074701237602	-10.19466664290215	54.26812461396821	0.947157453396322	0	0	0	44.84088493214681	-10.10074701237602	-10.19466664290215	54.26812461396821	0.947157453396322	0	0	0	-4.163250929156107	-3.496487071456915	0.8975226800533714	75.90200391091072	19.99370946298884	7.821552272239848	15.61583248368113	111.6827052152653	0	0	39.18762799674749	-6.90025058806674	0.06358391330075315	37.03815103286095	121.9873988971538	0	0
17.85999999999971	-5.095885097787419	-2.19208122802552	25.46181769503984	0	0.9399999999999999	0	44.84077936649444	-10.1007041670287	-10.19476046283165	54.2677298421983	0.9471505633291432	0	0	0	44.84077936649444	-10.1007041670287	-10.19476046283165	54.2677298421983	0.9471505633291432	0	0	0	-4.142079222413026	-3.493363382546348	0.8954539393695877	75.90013599919921	19.98804958161553	7.801877734566178	15.66262447121793	111.6789975761345	0	0	39.17758154723617	-6.890297549189374	0.03466059228880816	37.01542561351239	121.9927178705819	0	0
17.87999999999971	-5.06737487071662	-2.153461865637206	25.39833438006627	0	0.9399999999999999	0	44.8408031861922	-10.10065183942488	-10.19469542648193	54.26780361710804	0.9471518509442234	0	0	0	44.8408031861922	-10.10065183942488	-10.19469542648193	54.26780361710804	0.9471518509442234	0	0	0	-4.09941909170498	-3.471622696817674	0.9079782808907491	75.77604971400297	19.79465362267844	7.615974618661868	15.81036021268119	111.8255083919742	0	0	39.07183846978825	-6.887130388590117	-0.02294414435519604	36.97657979750292	122.0329368482847	0	0
